<?xml version="1.0" encoding="UTF-8" standalone="no"?>
<!DOCTYPE svg PUBLIC "-//W3C//DTD SVG 1.1//EN" "http://www.w3.org/Graphics/SVG/1.1/DTD/svg11.dtd">
<!-- Generated by graphviz version 2.40.1 (20161225.0304)
 -->
<!-- Title: g Pages: 1 -->
<svg width="367pt" height="368pt" viewBox="0.00 0.00 366.88 367.60" xmlns="http://www.w3.org/2000/svg" xmlns:xlink="http://www.w3.org/1999/xlink">
<g id="graph0" class="graph" transform="scale(1 1) rotate(0) translate(4 363.6)">
<title>g</title>
<polygon fill="#ffffff" stroke="transparent" points="-4,4 -4,-363.6 362.8761,-363.6 362.8761,4 -4,4"/>
<!-- imm_3 -->
<g id="node1" class="node">
<title>imm_3</title>
<ellipse fill="none" stroke="#000000" cx="139.5462" cy="-179.8" rx="27" ry="18"/>
<text text-anchor="middle" x="139.5462" y="-175.6" font-family="Times,serif" font-size="14.00" fill="#000000">*</text>
</g>
<!-- imm_4lhs -->
<g id="node7" class="node">
<title>imm_4lhs</title>
<ellipse fill="none" stroke="#000000" cx="193.5462" cy="-91" rx="38.303" ry="18"/>
<text text-anchor="middle" x="193.5462" y="-86.8" font-family="Times,serif" font-size="14.00" fill="#000000">imm_3</text>
</g>
<!-- imm_3&#45;&gt;imm_4lhs -->
<g id="edge7" class="edge">
<title>imm_3-&gt;imm_4lhs</title>
<path fill="none" stroke="#000000" d="M149.7032,-163.0974C157.5464,-150.1997 168.5468,-132.1102 177.5664,-117.2778"/>
<polygon fill="#000000" stroke="#000000" points="180.6752,-118.9018 182.8806,-108.5391 174.6942,-115.2647 180.6752,-118.9018"/>
<text text-anchor="middle" x="191.3821" y="-131.2" font-family="Times,serif" font-size="14.00" fill="#000000">imm_3</text>
</g>
<!-- imm_3lhs -->
<g id="node2" class="node">
<title>imm_3lhs</title>
<ellipse fill="none" stroke="#000000" cx="139.5462" cy="-252.8" rx="40.5925" ry="18"/>
<text text-anchor="middle" x="139.5462" y="-248.6" font-family="Times,serif" font-size="14.00" fill="#000000">input_0</text>
</g>
<!-- imm_3lhs&#45;&gt;imm_3 -->
<g id="edge1" class="edge">
<title>imm_3lhs-&gt;imm_3</title>
<path fill="none" stroke="#000000" d="M139.5462,-234.7551C139.5462,-226.6828 139.5462,-216.9764 139.5462,-207.9817"/>
<polygon fill="#000000" stroke="#000000" points="143.0463,-207.8903 139.5462,-197.8904 136.0463,-207.8904 143.0463,-207.8903"/>
</g>
<!-- imm_3rhs -->
<g id="node3" class="node">
<title>imm_3rhs</title>
<ellipse fill="none" stroke="#000000" cx="40.5462" cy="-252.8" rx="40.5925" ry="18"/>
<text text-anchor="middle" x="40.5462" y="-248.6" font-family="Times,serif" font-size="14.00" fill="#000000">input_1</text>
</g>
<!-- imm_3rhs&#45;&gt;imm_3 -->
<g id="edge2" class="edge">
<title>imm_3rhs-&gt;imm_3</title>
<path fill="none" stroke="#000000" d="M61.5416,-237.3186C76.4833,-226.3009 96.6815,-211.4073 112.7809,-199.5361"/>
<polygon fill="#000000" stroke="#000000" points="115.2725,-202.0475 121.2438,-193.2957 111.1181,-196.4135 115.2725,-202.0475"/>
</g>
<!-- input_0 -->
<g id="node4" class="node">
<title>input_0</title>
<ellipse fill="none" stroke="#000000" cx="159.5462" cy="-341.6" rx="40.5925" ry="18"/>
<text text-anchor="middle" x="159.5462" y="-337.4" font-family="Times,serif" font-size="14.00" fill="#000000">input_0</text>
</g>
<!-- input_0&#45;&gt;imm_3lhs -->
<g id="edge3" class="edge">
<title>input_0-&gt;imm_3lhs</title>
<path fill="none" stroke="#000000" d="M150.9692,-323.6326C148.5985,-317.9774 146.267,-311.6316 144.765,-305.6 142.8149,-297.7692 141.5884,-289.1143 140.8185,-281.1166"/>
<polygon fill="#000000" stroke="#000000" points="144.3051,-280.8074 140.0471,-271.1059 137.3258,-281.3453 144.3051,-280.8074"/>
<text text-anchor="middle" x="166.9368" y="-293" font-family="Times,serif" font-size="14.00" fill="#000000">input_0</text>
</g>
<!-- imm_4rhs -->
<g id="node8" class="node">
<title>imm_4rhs</title>
<ellipse fill="none" stroke="#000000" cx="278.5462" cy="-252.8" rx="80.1602" ry="18"/>
<text text-anchor="middle" x="278.5462" y="-248.6" font-family="Times,serif" font-size="14.00" fill="#000000">input_0 + input_2</text>
</g>
<!-- input_0&#45;&gt;imm_4rhs -->
<g id="edge8" class="edge">
<title>input_0-&gt;imm_4rhs</title>
<path fill="none" stroke="#000000" d="M180.5471,-325.9288C199.0431,-312.1267 226.2374,-291.8338 247.2896,-276.1243"/>
<polygon fill="#000000" stroke="#000000" points="249.3925,-278.9222 255.3138,-270.1365 245.206,-273.312 249.3925,-278.9222"/>
<text text-anchor="middle" x="251.9368" y="-293" font-family="Times,serif" font-size="14.00" fill="#000000">input_0</text>
</g>
<!-- input_1 -->
<g id="node5" class="node">
<title>input_1</title>
<ellipse fill="none" stroke="#000000" cx="40.5462" cy="-341.6" rx="40.5925" ry="18"/>
<text text-anchor="middle" x="40.5462" y="-337.4" font-family="Times,serif" font-size="14.00" fill="#000000">input_1</text>
</g>
<!-- input_1&#45;&gt;imm_3rhs -->
<g id="edge4" class="edge">
<title>input_1-&gt;imm_3rhs</title>
<path fill="none" stroke="#000000" d="M40.5462,-323.2006C40.5462,-311.0949 40.5462,-295.0076 40.5462,-281.2674"/>
<polygon fill="#000000" stroke="#000000" points="44.0463,-280.872 40.5462,-270.872 37.0463,-280.8721 44.0463,-280.872"/>
<text text-anchor="middle" x="61.9368" y="-293" font-family="Times,serif" font-size="14.00" fill="#000000">input_1</text>
</g>
<!-- imm_4 -->
<g id="node6" class="node">
<title>imm_4</title>
<ellipse fill="none" stroke="#000000" cx="235.5462" cy="-18" rx="27" ry="18"/>
<text text-anchor="middle" x="235.5462" y="-13.8" font-family="Times,serif" font-size="14.00" fill="#000000">*</text>
</g>
<!-- imm_4lhs&#45;&gt;imm_4 -->
<g id="edge5" class="edge">
<title>imm_4lhs-&gt;imm_4</title>
<path fill="none" stroke="#000000" d="M203.7132,-73.3287C208.791,-64.5031 215.0324,-53.6549 220.6394,-43.9095"/>
<polygon fill="#000000" stroke="#000000" points="223.8087,-45.4191 225.762,-35.0059 217.7413,-41.9282 223.8087,-45.4191"/>
</g>
<!-- imm_4rhs&#45;&gt;imm_4 -->
<g id="edge6" class="edge">
<title>imm_4rhs-&gt;imm_4</title>
<path fill="none" stroke="#000000" d="M275.2435,-234.7655C267.7866,-194.0473 249.6021,-94.752 240.6692,-45.9741"/>
<polygon fill="#000000" stroke="#000000" points="244.1044,-45.3018 238.8602,-36.0959 237.2189,-46.5629 244.1044,-45.3018"/>
</g>
<!-- input_2 -->
<g id="node9" class="node">
<title>input_2</title>
<ellipse fill="none" stroke="#000000" cx="278.5462" cy="-341.6" rx="40.5925" ry="18"/>
<text text-anchor="middle" x="278.5462" y="-337.4" font-family="Times,serif" font-size="14.00" fill="#000000">input_2</text>
</g>
<!-- input_2&#45;&gt;imm_4rhs -->
<g id="edge9" class="edge">
<title>input_2-&gt;imm_4rhs</title>
<path fill="none" stroke="#000000" d="M278.5462,-323.2006C278.5462,-311.0949 278.5462,-295.0076 278.5462,-281.2674"/>
<polygon fill="#000000" stroke="#000000" points="282.0463,-280.872 278.5462,-270.872 275.0463,-280.8721 282.0463,-280.872"/>
<text text-anchor="middle" x="299.9368" y="-293" font-family="Times,serif" font-size="14.00" fill="#000000">input_2</text>
</g>
</g>
</svg>